<svg width="512" height="512" viewBox="0 0 512 512" fill="none" xmlns="http://www.w3.org/2000/svg">
  <rect width="512" height="512" rx="128" fill="#0D2A4C"/>
  <path d="M256 128C185.3 128 128 185.3 128 256C128 326.7 185.3 384 256 384C326.7 384 384 326.7 384 256C384 185.3 326.7 128 256 128ZM256 341.3C208.9 341.3 170.7 303.1 170.7 256C170.7 208.9 208.9 170.7 256 170.7C303.1 170.7 341.3 208.9 341.3 256C341.3 303.1 303.1 341.3 256 341.3Z" fill="#4ECDC4"/>
  <path d="M368 144L144 368" stroke="#4ECDC4" stroke-width="32" stroke-linecap="round"/>
  <path d="M144 144L368 368" stroke="#4ECDC4" stroke-width="32" stroke-linecap="round"/>
  <circle cx="256" cy="256" r="64" fill="#1A535C"/>
</svg>
